<svg
   xmlns="http://www.w3.org/2000/svg"
   viewBox="0 0 166.7 168.9"
   width="166.7"
   height="168.9"
   isolation="isolate">
  <defs>
    <clipPath>
      <rect width="166.7" height="168.9" />
    </clipPath>
  </defs>
  <g
     clip-path="url(#_clipPath_PPPiEcORhRSYwopEENnaRFzzeYSXmwtt)">
    <path
       d="m 65.6,135.2 c 0,1.9 -1.5,3.4 -3.4,3.4 -1.8,0 -3.3,-1.5 -3.3,-3.4 0,-4.5 3,-8.5 7.9,-11.2 4.3,-2.4 10.2,-3.9 16.5,-3.9 6.4,0 12.3,1.5 16.6,3.9 4.8,2.7 7.9,6.7 7.9,11.2 0,1.9 -1.5,3.4 -3.4,3.4 -1.8,0 -3.3,-1.5 -3.3,-3.4 0,-1.9 -1.7,-3.9 -4.5,-5.4 -3.3,-1.9 -8,-3 -13.3,-3 -5.2,0 -9.9,1.1 -13.3,3 -2.7,1.5 -4.4,3.5 -4.4,5.4 z m 17.7,31.4 C 56.434859,167.0289 39.5,157.3 24.4,142.2 9.3,127.1 0,106.3 0,83.3 0,60.3 9.3,39.5 24.4,24.4 39.5,9.3 60.25,0 83.3,0 c 23.05,0 43.9,9.3 59,24.4 15,15.1 24.4,35.38703 24.4,58.9 0,23.51297 -8.15462,43.44893 -21.87616,57.96444 C 131.1023,155.77995 110.16514,166.1711 83.3,166.6 Z m 56.39267,-29.97322 C 152.46019,123.78015 159.62527,103.50163 160,83.3 160.37473,63.098368 151.4,43 137.6,29.1 123.7,15.2 104.45,6.7 83.3,6.7 62.15,6.7 43,15.2 29.1,29.1 15.2,43 6.7,62.1 6.7,83.3 c 0,21.2 8.5,40.3 22.4,54.2 13.9,13.9 30.668902,22.57478 54.2,22.5 23.5311,-0.0748 43.62515,-10.52659 56.39267,-23.37322 z M 135.3,72.7 c 0.9,1.6 0.3,3.6 -1.4,4.5 -1.6,0.8 -3.6,0.2 -4.5,-1.4 -0.7,-1.5 -1.8,-2.9 -3.1,-3.9 -1.3,-1.1 -2.9,-1.8 -4.5,-2.3 v 0 c -1,-0.2 -2,-0.4 -2.9,-0.4 -1.1,0 -2.1,0.1 -3.1,0.3 -1.8,0.4 -3.5,-0.7 -4,-2.5 -0.3,-1.8 0.8,-3.5 2.6,-4 1.4,-0.3 3,-0.4 4.5,-0.4 1.6,0 3.1,0.2 4.5,0.6 h 0.2 c 2.5,0.7 4.8,1.9 6.8,3.5 2.1,1.6 3.7,3.7 4.9,6 z m -98.1,3.1 c -0.8,1.6 -2.8,2.2 -4.5,1.4 -1.6,-0.9 -2.2,-2.9 -1.4,-4.5 1.2,-2.3 2.9,-4.4 4.9,-6 2,-1.6 4.4,-2.8 6.9,-3.5 h 0.1 c 1.5,-0.4 3,-0.6 4.5,-0.6 1.6,0 3.1,0.1 4.6,0.4 1.8,0.5 2.9,2.2 2.5,4 -0.4,1.8 -2.2,2.9 -3.9,2.5 -1,-0.2 -2.1,-0.3 -3.1,-0.3 -1,0 -2,0.2 -2.9,0.4 v 0 c -1.7,0.5 -3.2,1.2 -4.5,2.3 -1.3,1 -2.4,2.4 -3.2,3.9 z m 88,16.9 c 0,-2 -0.7,-3.8 -1.9,-5.1 -1.1,-1.1 -2.7,-1.9 -4.3,-1.9 -1.7,0 -3.2,0.8 -4.3,1.9 -1.2,1.3 -1.9,3.1 -1.9,5.1 0,1.9 0.7,3.7 1.9,5 1.1,1.2 2.6,1.9 4.3,1.9 1.6,0 3.2,-0.7 4.3,-1.9 1.2,-1.3 1.9,-3.1 1.9,-5 z m 3,-9.5 c 2.2,2.4 3.6,5.8 3.6,9.5 0,3.7 -1.4,7 -3.6,9.5 -2.4,2.5 -5.6,4.1 -9.2,4.1 -3.6,0 -6.9,-1.6 -9.2,-4.1 -2.3,-2.5 -3.7,-5.8 -3.7,-9.5 0,-3.7 1.4,-7.1 3.7,-9.5 2.3,-2.6 5.6,-4.1 9.2,-4.1 3.6,0 6.8,1.5 9.2,4.1 z m -74.3,9.5 c 0,-2 -0.7,-3.8 -1.9,-5.1 -1.1,-1.1 -2.6,-1.9 -4.3,-1.9 -1.7,0 -3.2,0.8 -4.3,1.9 -1.2,1.3 -1.9,3.1 -1.9,5.1 0,1.9 0.7,3.7 1.9,5 1.1,1.2 2.6,1.9 4.3,1.9 1.7,0 3.2,-0.7 4.3,-1.9 1.2,-1.3 1.9,-3.1 1.9,-5 z m 3,-9.5 c 2.3,2.4 3.6,5.8 3.6,9.5 0,3.7 -1.3,7 -3.6,9.5 -2.4,2.5 -5.6,4.1 -9.2,4.1 -3.6,0 -6.8,-1.6 -9.2,-4.1 -2.3,-2.5 -3.7,-5.8 -3.7,-9.5 0,-3.7 1.4,-7.1 3.7,-9.5 2.4,-2.6 5.6,-4.1 9.2,-4.1 3.6,0 6.8,1.5 9.2,4.1 z"
       style="fill:#011627;fill-opacity:0.2"
      />
  </g>
</svg>
